<!DOCTYPE svg PUBLIC "-//W3C//DTD SVG 20010904//EN" "http://www.w3.org/TR/2001/REC-SVG-20010904/DTD/svg10.dtd">
<svg version="1.0" xmlns="http://www.w3.org/2000/svg" width="1200px" height="511px" viewBox="0 0 12000 5110" preserveAspectRatio="xMidYMid meet">
<g id="layer101" fill="#341235" stroke="none">
<path d="M0 2555 l0 -2555 6000 0 6000 0 0 2555 0 2555 -6000 0 -6000 0 0 -2555z"/>
</g>
<g id="layer102" fill="#e70b29" stroke="none">
<path d="M0 2555 l0 -2555 6000 0 6000 0 0 2555 0 2555 -6000 0 -6000 0 0 -2555z m4478 1109 c17 -3 32 -8 32 -13 0 -25 -214 -468 -294 -609 -31 -55 -33 -64 -18 -68 126 -41 219 -113 264 -206 111 -228 -4 -555 -234 -667 -103 -49 -189 -63 -418 -66 -186 -3 -594 14 -756 31 l-52 5 -6 162 c-3 89 -10 333 -16 542 -6 208 -15 424 -20 480 -5 55 -11 145 -15 201 l-6 101 38 7 c71 11 327 17 433 9 l104 -8 -3 -227 -3 -228 29 0 c15 0 51 -3 79 -6 l50 -6 32 103 c35 118 67 271 77 374 11 119 -30 107 343 100 180 -3 342 -8 360 -11z m1152 7 c147 -7 158 -9 222 -40 72 -35 338 -213 349 -234 20 -35 31 -284 26 -566 -4 -163 -9 -312 -11 -331 -3 -19 -10 -73 -16 -120 -12 -92 -58 -378 -64 -396 -3 -8 -27 -7 -83 2 -50 9 -133 12 -234 9 l-157 -4 5 362 c5 356 -4 571 -27 633 l-11 27 -193 -5 c-112 -3 -201 -10 -214 -17 -31 -16 -37 -86 -36 -411 0 -213 5 -314 17 -398 9 -62 17 -115 17 -119 0 -6 -528 1 -534 8 -3 2 -14 119 -26 259 -28 337 -36 680 -21 893 l12 169 32 28 c103 90 298 229 345 246 42 15 343 17 602 5z m3283 -26 l34 -7 11 -181 c6 -100 14 -308 17 -462 3 -154 8 -299 11 -322 l6 -41 76 -6 c43 -3 131 -8 196 -12 l119 -6 -7 -222 c-3 -121 -9 -253 -12 -292 l-6 -71 -182 -7 c-172 -6 -1072 -36 -1108 -36 -16 0 -18 14 -18 158 0 88 3 247 7 355 l6 197 188 0 187 0 7 188 c4 103 5 318 2 479 -6 271 -5 292 11 296 24 7 414 -1 455 -8z m-1631 -35 c394 -19 562 -63 670 -177 76 -79 95 -235 45 -365 -34 -88 -82 -162 -144 -220 -111 -103 -208 -126 -758 -178 -115 -11 -216 -20 -222 -20 -7 0 -13 -9 -13 -20 0 -14 9 -21 33 -25 17 -3 246 -11 507 -18 465 -12 475 -12 473 -32 -17 -172 -23 -313 -17 -421 l7 -131 -129 -21 c-71 -12 -163 -27 -204 -34 -118 -19 -512 -16 -630 6 -192 35 -313 89 -389 172 -96 105 -136 234 -128 404 6 117 27 210 65 285 82 164 137 181 687 205 132 6 246 13 253 15 6 2 12 16 12 31 l0 27 -427 -7 c-236 -3 -459 -9 -497 -13 l-69 -6 7 64 c4 35 9 154 11 264 4 184 5 200 22 203 31 5 382 19 508 20 66 1 213 -3 327 -8z m-3705 -1742 c-3 -8 -6 -5 -6 6 -1 11 2 17 5 13 3 -3 4 -12 1 -19z m-10 -195 c-3 -10 -5 -4 -5 12 0 17 2 24 5 18 2 -7 2 -21 0 -30z m-10 -165 c-3 -8 -6 -5 -6 6 -1 11 2 17 5 13 3 -3 4 -12 1 -19z m-10 -195 c-3 -10 -5 -2 -5 17 0 19 2 27 5 18 2 -10 2 -26 0 -35z m4328 -3 c3 -5 4 -10 1 -10 -3 0 -8 5 -11 10 -3 6 -4 10 -1 10 3 0 8 -4 11 -10z m-4338 -162 c-3 -8 -6 -5 -6 6 -1 11 2 17 5 13 3 -3 4 -12 1 -19z m-10 -255 c-2 -16 -4 -5 -4 22 0 28 2 40 4 28 2 -13 2 -35 0 -50z m0 -115 c-2 -13 -4 -5 -4 17 -1 22 1 32 4 23 2 -10 2 -28 0 -40z"/>
<path d="M3618 2693 c-33 -3 -48 -9 -52 -21 -10 -37 -38 -263 -33 -269 12 -11 245 -24 307 -16 61 8 65 10 71 38 9 39 10 194 3 222 -5 17 -17 24 -58 32 -65 13 -178 19 -238 14z"/>
</g>
<g id="layer103" fill="#fe7b00" stroke="none">
<path d="M3896 3553 c-3 -3 -6 -19 -6 -34 0 -37 -37 -218 -61 -304 -17 -58 -78 -235 -83 -242 -1 -1 -80 4 -176 12 -96 8 -179 15 -183 15 -4 0 -5 101 -1 225 l7 225 -163 0 -163 0 6 -72 c14 -163 28 -483 37 -827 5 -200 10 -365 12 -366 6 -5 594 -35 678 -35 121 0 250 17 327 42 88 29 170 104 215 197 31 62 33 72 33 176 0 94 -3 116 -22 151 -48 90 -146 142 -283 151 -49 3 -90 7 -90 9 0 1 41 73 91 161 91 157 266 500 258 507 -8 6 -426 15 -433 9z m0 -759 c120 -31 137 -56 142 -213 7 -191 -22 -273 -106 -303 -50 -18 -318 -15 -440 5 -51 8 -95 16 -97 19 -4 4 49 403 61 460 5 23 13 28 57 37 119 24 282 22 383 -5z"/>
<path d="M5042 3535 c-34 -20 -155 -108 -253 -185 -43 -34 -48 -449 -13 -935 9 -121 17 -221 18 -222 1 -1 66 -5 145 -9 l144 -7 -6 44 c-19 129 -28 441 -17 573 16 210 34 277 80 301 46 24 188 37 367 33 155 -3 174 -5 200 -24 65 -48 83 -191 83 -654 l0 -329 118 -3 c64 -2 120 -1 125 3 11 8 54 326 68 502 11 152 7 613 -7 682 -5 25 -26 44 -127 112 -188 126 -186 125 -367 134 -85 4 -236 8 -335 8 -173 1 -182 0 -223 -24z"/>
<path d="M8570 3534 c3 -72 -11 -874 -16 -914 l-6 -56 -182 4 -183 4 -6 -158 c-4 -88 -7 -192 -7 -231 l0 -73 118 0 c208 1 945 29 953 37 3 4 10 83 13 175 l7 166 -28 6 c-15 3 -103 8 -194 12 l-166 6 -7 112 c-4 61 -11 278 -16 482 -5 205 -12 384 -16 398 -6 26 -7 26 -98 26 -50 0 -108 3 -128 6 -21 4 -38 3 -38 -2z"/>
<path d="M6718 3490 c-87 -3 -159 -8 -161 -11 -3 -2 -7 -66 -10 -142 l-5 -139 326 9 c574 14 618 11 643 -54 17 -43 12 -128 -10 -178 -26 -58 -40 -61 -326 -75 -260 -12 -426 -25 -502 -41 -39 -8 -59 -19 -81 -44 -78 -88 -114 -322 -73 -465 17 -59 73 -142 119 -177 52 -39 192 -85 317 -104 142 -22 449 -17 625 10 79 12 145 23 146 24 1 1 4 81 7 178 l5 175 -431 13 c-566 17 -532 13 -551 62 -24 58 -21 170 4 201 23 30 33 32 313 58 430 40 581 66 653 111 50 31 103 96 138 168 25 53 31 81 34 146 4 96 -12 129 -85 176 -96 60 -232 84 -573 99 -248 11 -272 11 -522 0z"/>
</g>
<g id="layer104" fill="#83b2fc" stroke="none">
<path d="M0 1250 l0 -1250 6000 0 6000 0 0 1250 0 1250 -1308 0 -1309 0 -6 -157 c-4 -87 -10 -194 -13 -239 l-7 -81 -161 -6 c-88 -4 -330 -11 -536 -17 -206 -6 -412 -13 -458 -16 l-83 -6 7 -232 7 -232 -109 -17 c-225 -35 -525 -65 -728 -74 l-158 -6 4 201 c2 110 6 204 10 207 3 4 55 13 115 21 195 27 243 36 243 45 0 5 -12 16 -26 26 -22 14 -59 17 -262 18 -221 2 -305 10 -422 40 -34 8 -99 -48 -152 -129 -149 -231 -91 -557 129 -722 99 -75 146 -88 303 -88 121 0 143 3 209 27 91 33 201 101 289 177 63 55 68 58 92 45 37 -19 342 -248 364 -274 l20 -22 -75 -75 c-283 -289 -538 -434 -839 -480 -168 -25 -322 -12 -464 40 -244 88 -456 326 -554 621 -51 155 -54 181 -50 440 4 231 5 243 32 320 61 175 130 296 235 407 l61 66 -10 48 c-5 27 -11 65 -12 84 l-3 35 -80 0 -80 0 -7 -60 c-12 -92 -70 -449 -74 -456 -3 -6 -28 -3 -138 16 l-29 5 7 -227 c18 -587 26 -839 32 -1095 l7 -278 -49 0 c-124 0 -549 51 -566 68 -17 17 51 1454 95 2002 l2 25 -159 3 -159 3 6 -92 c6 -81 10 -95 37 -129 72 -91 120 -238 120 -365 0 -146 -44 -249 -155 -362 l-74 -75 38 -41 c72 -79 139 -195 167 -286 21 -71 18 -261 -6 -355 -34 -136 -130 -248 -267 -314 -193 -92 -515 -79 -852 34 -106 36 -346 153 -446 218 l-87 57 6 142 c4 78 11 214 16 302 25 427 43 786 39 789 -2 3 -31 6 -64 7 l-60 3 -7 -110 c-4 -60 -16 -282 -28 -494 -11 -212 -24 -450 -29 -530 l-10 -145 5 175 c3 96 16 369 29 605 14 237 25 446 25 466 l0 35 -242 12 c-134 7 -264 15 -290 18 l-48 6 -1 61 c-1 34 -4 130 -8 212 l-6 150 -1492 3 -1493 2 0 -1250z m7881 53 c13 -16 12 -17 -3 -4 -10 7 -18 15 -18 17 0 8 8 3 21 -13z m-2613 -878 c-3 -3 -9 2 -12 12 -6 14 -5 15 5 6 7 -7 10 -15 7 -18z"/>
</g>
<g id="layer105" fill="#fffdfd" stroke="none">
<path d="M0 5100 c0 -7 2007 -10 6000 -10 3993 0 6000 3 6000 10 0 7 -2007 10 -6000 10 -3993 0 -6000 -3 -6000 -10z"/>
<path d="M2956 4823 c-227 -327 -232 -333 -266 -333 -37 0 -36 -4 -50 224 -6 99 -14 184 -17 189 -10 16 -226 0 -239 -18 -6 -8 -14 -65 -18 -127 -18 -296 -26 -440 -36 -648 -5 -124 -13 -264 -16 -311 l-6 -87 78 -25 c104 -33 150 -43 268 -58 114 -14 279 -7 375 16 127 30 231 110 279 213 24 50 27 69 27 157 0 92 -3 106 -32 167 -37 80 -104 150 -185 197 -32 18 -60 36 -63 41 -9 15 6 37 149 205 75 88 135 165 133 170 -4 13 -179 147 -227 174 l-38 21 -116 -167z m-140 -628 c113 -24 172 -53 207 -105 35 -50 12 -104 -56 -129 -32 -12 -273 -15 -280 -3 -3 4 -8 62 -12 130 l-7 122 37 0 c20 0 70 -7 111 -15z"/>
<path d="M1380 4908 c-52 -5 -98 -12 -101 -16 -7 -7 -28 -366 -49 -807 -5 -115 -12 -247 -15 -292 l-6 -82 93 -30 c51 -16 131 -36 177 -45 107 -21 307 -21 403 -1 97 20 203 72 257 126 106 106 136 301 69 447 -31 68 -153 184 -233 222 -82 39 -226 76 -332 85 l-82 7 -5 52 c-3 28 -11 112 -16 186 -11 135 -19 161 -49 159 -9 -1 -59 -6 -111 -11z m411 -708 c173 -65 204 -177 66 -235 -52 -22 -262 -22 -271 0 -3 9 -9 73 -12 142 l-7 126 86 -6 c48 -4 110 -16 138 -27z"/>
<path d="M4805 4909 c-125 -17 -263 -82 -360 -170 -53 -49 -55 -53 -39 -70 21 -24 220 -179 229 -179 4 0 26 16 49 35 68 56 160 93 248 101 71 6 82 5 133 -21 31 -15 63 -38 72 -51 14 -22 14 -26 -1 -49 -19 -29 -77 -48 -236 -75 -204 -35 -312 -75 -390 -146 -82 -74 -108 -156 -90 -281 12 -92 40 -150 102 -218 86 -94 186 -144 331 -166 l73 -11 53 33 c49 31 60 33 165 38 106 6 115 8 170 41 69 42 159 125 154 143 -6 16 -228 217 -240 217 -6 0 -32 -16 -58 -35 -79 -58 -155 -88 -237 -93 -210 -13 -292 111 -117 177 27 10 119 33 204 51 282 58 356 95 412 205 31 60 22 179 -22 265 -102 203 -323 297 -605 259z"/>
<path d="M6892 4890 c-40 -3 -76 -11 -81 -16 -15 -14 -60 -846 -61 -1097 l0 -107 27 -11 c16 -6 98 -13 185 -16 l157 -6 -6 281 -6 282 174 0 c96 0 185 3 198 7 l23 6 -7 -263 -8 -263 159 7 c87 4 174 10 192 13 l33 5 -6 87 c-3 47 -10 174 -15 281 -14 264 -40 651 -49 708 l-6 47 -55 6 c-122 15 -209 16 -214 4 -2 -7 -8 -89 -12 -184 l-7 -172 -96 6 c-53 3 -144 8 -202 11 l-107 6 -7 194 -7 194 -62 -1 c-33 -1 -94 -5 -134 -9z"/>
<path d="M8325 4886 c-148 -49 -268 -151 -328 -278 -74 -155 -77 -296 -10 -501 61 -189 248 -377 434 -436 20 -7 116 -12 221 -14 l185 -2 79 39 c145 72 245 200 275 354 17 90 7 269 -21 352 -77 230 -235 394 -450 469 -81 29 -318 39 -385 17z m272 -289 c84 -18 161 -72 212 -148 55 -82 65 -117 58 -216 -6 -102 -35 -157 -112 -212 -49 -36 -51 -36 -150 -36 -92 0 -104 2 -150 29 -74 42 -113 83 -151 158 -32 63 -34 74 -34 166 0 93 2 100 33 149 69 110 149 140 294 110z"/>
<path d="M9655 4886 c-171 -54 -288 -167 -355 -342 -18 -48 -23 -80 -23 -174 -1 -139 13 -210 62 -315 63 -134 190 -273 309 -338 85 -46 216 -78 322 -78 114 -1 170 11 264 55 128 60 225 171 266 304 25 80 27 239 4 350 -20 98 -78 219 -145 300 -92 112 -241 206 -373 237 -75 18 -276 18 -331 1z m338 -309 c69 -31 152 -113 180 -177 26 -57 34 -183 17 -245 -16 -58 -65 -114 -130 -149 -49 -27 -58 -28 -139 -24 -144 9 -224 65 -294 208 -28 56 -32 75 -32 145 0 70 4 87 30 134 33 60 85 108 136 128 54 20 165 11 232 -20z"/>
<path d="M10667 4893 c-3 -5 -11 -97 -17 -204 -6 -107 -15 -264 -20 -349 -6 -85 -13 -272 -17 -416 l-6 -261 29 -6 c52 -10 324 -31 330 -24 13 12 -2 600 -22 848 l-6 76 47 7 c27 3 135 6 241 6 114 0 195 4 199 10 5 9 -12 250 -18 257 -5 5 -188 21 -417 38 -118 8 -238 18 -266 21 -29 3 -54 2 -57 -3z"/>
<path d="M3490 4873 c0 -10 -5 -74 -10 -142 -17 -211 -39 -626 -45 -836 -3 -110 -8 -210 -11 -222 l-4 -23 180 0 c158 0 181 2 187 16 6 15 28 16 232 10 124 -4 246 -4 270 0 l44 7 -7 101 c-7 120 -13 144 -35 150 -9 3 -95 10 -191 16 -96 5 -210 13 -253 17 l-78 6 3 81 3 81 220 5 220 5 3 25 c5 33 -8 183 -17 198 -4 6 -81 20 -181 32 -96 11 -194 23 -216 26 l-42 5 -4 67 c-3 37 -4 68 -4 69 1 1 126 6 279 11 152 4 280 11 284 15 7 7 -9 233 -18 241 -10 10 -619 56 -741 56 -58 0 -68 -3 -68 -17z"/>
<path d="M5990 4874 c-277 -75 -461 -306 -463 -584 -2 -323 208 -582 524 -646 197 -40 408 15 582 151 l58 46 -78 100 c-42 55 -91 116 -107 135 l-31 34 -65 -45 c-81 -57 -141 -75 -249 -75 -73 0 -93 4 -139 27 -61 31 -120 93 -154 161 -30 61 -31 187 -3 246 46 97 137 150 255 150 95 -1 167 -28 239 -89 29 -25 59 -45 67 -45 27 0 254 120 254 134 0 20 -67 103 -134 163 -62 57 -170 115 -256 138 -70 19 -228 18 -300 -1z"/>
<path d="M0 2440 l0 -60 1305 -2 c718 -2 1389 -3 1493 -3 l187 0 0 60 0 60 -1492 3 -1493 2 0 -60z"/>
<path d="M3540 2474 c-6 -14 -10 -36 -10 -49 0 -26 6 -27 152 -40 l66 -5 4 56 c1 30 1 58 -1 60 -2 2 -49 4 -103 4 -97 0 -99 -1 -108 -26z"/>
<path d="M5183 2409 c6 -81 10 -95 37 -129 72 -91 120 -238 120 -365 0 -146 -44 -249 -155 -362 l-74 -75 38 -41 c72 -79 139 -195 167 -286 21 -71 18 -261 -6 -355 -34 -136 -130 -248 -267 -314 -193 -92 -515 -79 -852 34 -106 36 -346 153 -446 218 l-87 57 6 142 c4 78 11 214 16 302 25 427 43 786 39 789 -2 3 -31 6 -64 7 l-60 3 -7 -113 c-12 -194 -47 -839 -54 -1001 -6 -133 -4 -160 10 -187 35 -68 344 -241 591 -331 211 -76 360 -102 585 -102 200 1 308 27 451 110 37 22 72 40 78 40 6 0 17 -15 25 -34 27 -65 111 -90 411 -121 77 -8 189 -15 248 -15 175 0 196 21 198 202 1 62 4 146 8 187 l6 75 44 -57 c56 -74 164 -174 243 -228 74 -50 206 -111 298 -136 91 -25 371 -25 486 0 211 45 411 136 579 262 115 86 336 301 372 363 49 83 22 122 -203 287 -65 49 -121 90 -123 92 -11 8 17 15 153 38 163 28 200 40 235 79 l25 26 -3 258 c-1 141 -4 258 -5 260 -2 1 -31 -1 -65 -4 l-62 -7 7 -231 7 -232 -109 -17 c-225 -35 -525 -65 -728 -74 l-158 -6 4 201 c2 110 6 204 10 207 3 4 55 13 115 21 195 27 243 36 243 45 0 5 -12 16 -26 26 -22 14 -59 17 -262 18 -221 2 -305 10 -422 40 -34 8 -99 -48 -152 -129 -149 -231 -91 -557 129 -722 99 -75 146 -88 303 -88 121 0 143 3 209 27 91 33 201 101 289 177 63 55 68 58 92 45 37 -19 342 -248 364 -274 l20 -22 -75 -75 c-283 -289 -538 -434 -839 -480 -168 -25 -322 -12 -464 40 -244 88 -456 326 -554 621 -51 155 -54 181 -50 440 4 231 5 243 32 320 61 175 130 296 235 407 l61 66 -10 48 c-5 27 -11 65 -12 84 l-3 35 -80 0 -80 0 -7 -60 c-12 -92 -70 -449 -74 -456 -3 -6 -28 -3 -138 16 l-29 5 7 -227 c18 -587 26 -839 32 -1095 l7 -278 -49 0 c-124 0 -549 51 -566 68 -17 17 51 1454 95 2002 l2 25 -159 3 -159 3 6 -92z"/>
<path d="M9380 2440 l0 -60 1310 0 1310 0 0 60 0 60 -1310 0 -1310 0 0 -60z"/>
<path d="M4282 2134 l-54 -37 7 -156 c4 -90 12 -159 18 -163 23 -14 208 -20 320 -11 183 16 267 67 267 161 0 40 -5 50 -49 93 -37 38 -55 49 -80 49 -20 0 -31 5 -31 14 0 7 -12 19 -27 25 -47 19 -185 49 -253 55 -63 6 -67 5 -118 -30z"/>
<path d="M4261 1248 c0 -79 4 -165 7 -193 l7 -50 85 -30 c79 -27 96 -29 230 -30 158 0 187 8 229 61 29 37 26 82 -7 135 -56 87 -133 137 -292 189 -69 22 -229 60 -256 60 -2 0 -4 -64 -3 -142z"/>
</g>


</svg>